# xmcd
# Track frame offsets:
# 150
# 22803
# 43251
# 57458
# 84604
# 95255
# 116874
# 137718
# 156410
# 174230
# 196640
#
# Disc length: 2849 seconds
# Revision: 0
# Processed by: cddbd v1.5.2PL0 Copyright (c) Steve Scherf et al.
# Submitted via: VisiTrax 2.11.1.266 - For more info visit www.synapsa.com
#
DISCID=8d0b1f0b
DTITLE=Byrd and Street - Love Broke the Fall
DYEAR=2009
DGENRE=Country
TTITLE0=Love Broke the Fall
TTITLE1=Different Plan, A
TTITLE2=He Tells All the Girls He's a Cowboy
TTITLE3=Standing in Stone
TTITLE4=Let Me Be Your Friend
TTITLE5=When My Heart Remembers You
TTITLE6=My Airplane in the Backyard in the Sky
TTITLE7=Is You
TTITLE8=Alright
TTITLE9=Honey Makin' Time
TTITLE10=Down to Faith
EXTD=Submitted by Larry@LosSenderosStudio.com
EXTT0=
EXTT1=
EXTT2=
EXTT3=
EXTT4=
EXTT5=
EXTT6=
EXTT7=
EXTT8=
EXTT9=
EXTT10=
PLAYORDER=
